<svg viewBox="0 0 201.08724 186.76155" xmlns="http://www.w3.org/2000/svg" fill="currentColor" class="h-8 w-auto fill-blue-800">
  <g transform="matrix(0.98705,0,0,0.98705,-28.305,-21.62)">
    <g transform="rotate(8.699,131.949,131.657)" stroke="currentColor" stroke-width="6.7" stroke-linecap="round" stroke-linejoin="round" fill="none">
      <path d="M215.02 96.72c0 0-19.81 20.66-54.08 14.25-18.07-3.38-34.24-20.82-58.36-17.69-38.24 4.96-56.93 39.32-56.93 39.32l-.3 66.77s12.28-46.85 52.58-56.28c33.64-7.87 39.46 9.47 67.7 15.35 28.24 5.88 48.52-9.54 48.52-9.54z" />
      <path d="M213.97 33.47s-11.32 10.23-33.08 12.15c-33.59 1.02-41.81-15.5-73.72-16.54-31.91-1.04-58.1 19.17-62.46 28.89l-.18 49.65s16.45-23.33 49.78-30.66c33.33-7.33 50.93 18.27 80.92 19.12 30 0.85 38.36-19.67 38.36-19.67z" />
    </g>
  </g>
</svg>